<mxfile host="app.diagrams.net" modified="2021-09-07T04:05:27.728Z" agent="5.0 (Windows NT 10.0; Win64; x64) AppleWebKit/537.36 (KHTML, like Gecko) Chrome/93.0.4577.63 Safari/537.36 Edg/93.0.961.38" etag="50-urMMbkTUT3Jimts1x" version="15.0.6" type="github">
  <diagram id="wFE0QG_FPsp0jaGvCLVb" name="Page-1">
    <mxGraphModel dx="1422" dy="772" grid="1" gridSize="10" guides="1" tooltips="1" connect="1" arrows="1" fold="1" page="1" pageScale="1" pageWidth="850" pageHeight="1400" math="0" shadow="1">
      <root>
        <mxCell id="0" />
        <mxCell id="1" parent="0" />
        <object label="«价值流»&lt;br&gt;&lt;b&gt;%名称%&lt;/b&gt;" 业务ID="1" 名称="旅客" placeholders="1" id="Yn5zjWkYIxlVYVCwpNa8-4">
          <mxCell style="html=1;dropTarget=0;fillColor=#dae8fc;strokeColor=#6c8ebf;gradientDirection=east;gradientColor=#FFFFFF;labelPosition=center;verticalLabelPosition=middle;align=center;verticalAlign=top;" vertex="1" parent="1">
            <mxGeometry x="280" y="220" width="270" height="120" as="geometry" />
          </mxCell>
        </object>
        <mxCell id="Yn5zjWkYIxlVYVCwpNa8-5" value="" style="shape=module;jettyWidth=8;jettyHeight=4;" vertex="1" parent="Yn5zjWkYIxlVYVCwpNa8-4">
          <mxGeometry x="1" width="20" height="20" relative="1" as="geometry">
            <mxPoint x="-27" y="7" as="offset" />
          </mxGeometry>
        </mxCell>
      </root>
    </mxGraphModel>
  </diagram>
</mxfile>
